# xmcd
#
# Track frame offsets: 
#        150
#        54452
#        128725
#        158012
#        163702
#        172605
#        195042
#        208197
#        226472
#        230637
#        255940
#
# Disc length: 3831 seconds
#
# Revision: 0
# Processed by: cddbd v1.5.1PL2 Copyright (c) Steve Scherf et al.
# Submitted via: ExactAudioCopy v0.90b4
#
DISCID=7f0ef50b
DTITLE=Prince - Intimate Moments
DYEAR=2000
DGENRE=Funk
TTITLE0=Improvisation
TTITLE1=Purple Music
TTITLE2=17 Days
TTITLE3=Purple Rain
TTITLE4=A Case Of You
TTITLE5=Mary, Don't You Weep
TTITLE6=Strange Relationship
TTITLE7=International Lover
TTITLE8=Let Me Tell You What I Might
TTITLE9=Cold Coffee And Cocaine
TTITLE10=Mama
EXTD=
EXTT0=
EXTT1=
EXTT2=
EXTT3=
EXTT4=
EXTT5=
EXTT6=
EXTT7=
EXTT8=
EXTT9=
EXTT10=
PLAYORDER=
